HIERARCHY
ROOT Hips
{
	OFFSET 0.000000 0.000000 0.000000 
	CHANNELS 6 Xposition Yposition Zposition Yrotation Zrotation Xrotation 
	JOINT Lumbar
	{
		OFFSET 0.000000 0.000000 0.000000 
		CHANNELS 3 Zrotation Xrotation Yrotation
		JOINT Neck
		{
			OFFSET 0.000000 0.445665 0.000000 
			CHANNELS 3 Zrotation Xrotation Yrotation
			End Site
			{
				OFFSET 0.000000 0.227535 0.000000 
			}
		}
		JOINT RightShoulder
		{
			OFFSET 0.019635 0.377685 0.194865 
			CHANNELS 3 Zrotation Xrotation Yrotation
			JOINT RightElbow
			{
				OFFSET 0.000000 -0.243375 0.000000 
				CHANNELS 2 Zrotation Yrotation
				JOINT RightWrist
				{
					OFFSET 0.000000 -0.264825 0.000000 
					CHANNELS 2 Zrotation Xrotation
					End Site
					{
						OFFSET 0.006600 -0.176220 0.000990 
					}
				}
			}
		}
		JOINT LeftShoulder
		{
			OFFSET 0.019635 0.377685 -0.194865 
			CHANNELS 3 Zrotation Xrotation Yrotation
			JOINT LeftElbow
			{
				OFFSET 0.000000 -0.243375 0.000000 
				CHANNELS 2 Zrotation Yrotation
				JOINT LeftWrist
				{
					OFFSET 0.000000 -0.264825 0.000000 
					CHANNELS 2 Zrotation Xrotation
					End Site
					{
						OFFSET 0.006600 -0.176220 -0.000990 
					}
				}
			}
		}
	}
	JOINT RightHip
	{
		OFFSET 0.052140 -0.069960 0.075570 
		CHANNELS 3 Zrotation Xrotation Yrotation
		JOINT RightKnee
		{
			OFFSET 0.000000 -0.402270 0.000000 
			CHANNELS 1 Zrotation
			JOINT RightAnkle
			{
				OFFSET 0.000000 -0.404085 0.000000 
				CHANNELS 3 Zrotation Xrotation Yrotation
				End Site
				{
					OFFSET 0.204105 -0.089430 0.008415 
				}
			}
		}
	}
	JOINT LeftHip
	{
		OFFSET 0.052140 -0.069960 -0.075570 
		CHANNELS 3 Zrotation Xrotation Yrotation
		JOINT LeftKnee
		{
			OFFSET 0.000000 -0.402270 0.000000 
			CHANNELS 1 Zrotation
			JOINT LeftAnkle
			{
				OFFSET 0.000000 -0.404085 0.000000 
				CHANNELS 3 Zrotation Xrotation Yrotation
				End Site
				{
					OFFSET 0.204105 -0.089430 -0.008415 
				}
			}
		}
	}
}
MOTION
Frames: 30
Frame Time: 0.02
0.41536 0.6898 0.14776 892.76068 0 4.60657 -16.97782 -1.8684 -9.57517 -16.30787 12.47764 2.72751 14.2597 -35.56167 33.27274 100.92261 80.29696 -17.59389 -3.65056 50.90695 21.44768 17.64193 79.26451 -29.06296 -47.90715 -2.87021 67.65623 2.82519 -2.7916 -81.03478 3.0224 -3.51519 -3.39013 64.87443 0.31437 10.19121 -77.83623 17.9819 -12.83182 -10.86131
0.41521 0.68996 0.14716 892.73561 0 4.71098 -17.10273 -1.85129 -8.3887 -16.87478 9.73299 1.1728 14.43767 -31.96705 32.80088 99.56065 83.53726 -17.28768 -4.35936 54.7282 24.02565 12.66512 83.84014 -35.01964 -50.31674 -1.90744 67.62815 2.8429 -2.71458 -81.03363 3.09107 -3.53066 -3.42177 64.76532 0.35906 10.32295 -77.74844 18.01966 -12.96048 -10.94409
0.41517 0.69007 0.14642 892.7173 0 4.8404 -17.16323 -1.85971 -7.02582 -17.72186 6.63993 -0.52005 14.76607 -27.99755 32.17397 98.0189 86.73322 -16.83533 -5.03645 59.68525 27.09229 6.5684 88.46394 -42.74464 -52.55128 -0.77351 67.59985 2.87584 -2.60459 -81.02942 3.18643 -3.56011 -3.489 64.64752 0.39797 10.4722 -77.63893 18.05737 -13.10245 -11.03531
0.41509 0.69021 0.14574 892.69586 0 4.95834 -17.25147 -1.85631 -5.76123 -18.4377 3.74228 -2.13032 15.02277 -24.25585 31.63437 96.572 89.98089 -16.51013 -5.72356 64.12974 29.88998 0.90642 93.00501 -49.66736 -54.84519 0.26893 67.57144 2.90202 -2.50938 -81.02572 3.26921 -3.5842 -3.54049 64.53459 0.43926 10.61304 -77.53974 18.0939 -13.23501 -11.12213
0.41499 0.69034 0.14505 892.67484 0 5.07767 -17.34533 -1.85379 -4.41223 -19.16863 0.66852 -3.83424 15.28435 -20.24602 31.01438 95.06074 93.12727 -15.93438 -6.43377 68.57496 32.89689 -4.48709 97.88138 -56.63523 -57.25466 1.37824 67.54338 2.92721 -2.41482 -81.02525 3.35554 -3.60481 -3.59077 64.41704 0.48154 10.75641 -77.43786 18.13594 -13.38309 -11.21245
0.41494 0.69047 0.14437 892.65456 0 5.19941 -17.41237 -1.85555 -3.2013 -19.93339 -2.10892 -5.36989 15.57445 -16.72081 30.52853 93.64739 96.45066 -15.83778 -7.0855 73.25798 35.57458 -10.66428 102.03653 -63.91194 -59.36361 2.38863 67.51495 2.95814 -2.31146 -81.01769 3.44021 -3.63553 -3.65168 64.30767 0.52036 10.89811 -77.33706 18.16641 -13.50158 -11.29697
0.41502 0.69067 0.14373 892.63368 0 5.32526 -17.42274 -1.86241 -2.40162 -20.74561 -4.04081 -6.43347 15.91364 -14.56064 30.45181 92.50989 100.41146 -17.17182 -7.59675 78.62558 37.28842 -19.03017 104.23742 -71.56476 -60.76933 3.04156 67.48309 3.00199 -2.18797 -80.98907 3.51333 -3.69291 -3.73462 64.21887 0.55156 11.03503 -77.24065 18.16394 -13.5339 -11.36452
0.41515 0.69088 0.14312 892.61342 0 5.45192 -17.4082 -1.87282 -1.75068 -21.57843 -5.6496 -7.31683 16.27645 -12.91605 30.51666 91.48513 104.52351 -18.98007 -8.04723 84.14202 38.64239 -28.08683 105.69063 -79.45797 -61.86184 3.593 67.45134 3.05102 -2.05744 -80.95383 3.58364 -3.75949 -3.82665 64.1394 0.57941 11.16886 -77.14687 18.14993 -13.53598 -11.42557
0.41526 0.69107 0.14251 892.59351 0 5.57581 -17.40412 -1.88185 -1.04087 -22.38758 -7.36636 -8.26449 16.62512 -11.08074 30.51753 90.43471 108.47318 -20.5239 -8.51641 89.3862 40.11635 -36.63034 107.44405 -87.27498 -63.03687 4.2197 67.42121 3.09718 -1.93268 -80.9232 3.65539 -3.82035 -3.91358 64.05842 0.60846 11.30139 -77.05455 18.14183 -13.55256 -11.48873
0.41535 0.69133 0.14185 892.57132 0 5.71077 -17.40131 -1.89063 -0.28677 -23.26711 -9.25975 -9.29189 16.99308 -9.04791 30.51123 89.26975 112.81682 -22.26806 -9.02238 95.51667 41.78646 -46.05878 109.36966 -95.05606 -64.45015 4.73849 67.38411 3.14596 -1.796 -80.88589 3.72772 -3.88819 -4.00602 63.96568 0.63859 11.44599 -76.95032 18.13103 -13.56659 -11.55581
0.4155 0.69144 0.14129 892.55375 0 5.82251 -17.39091 -1.90063 0.33596 -24.00098 -10.70374 -10.108 17.32472 -7.55396 30.55565 88.37276 116.37651 -23.71079 -9.43746 99.84301 42.9623 -53.78783 110.75555 -102.89451 -65.30579 5.44451 67.36142 3.19042 -1.6828 -80.86073 3.79743 -3.9435 -4.08848 63.89967 0.66585 11.56447 -76.87174 18.123 -13.57837 -11.61304
0.41581 0.69111 0.14097 892.55054 0 5.86994 -17.36484 -1.91154 0.64393 -24.32898 -10.98458 -10.38839 17.54817 -7.42438 30.70527 88.18702 117.73059 -24.19424 -9.61828 98.95738 42.80382 -56.69603 110.85406 -111.26929 -64.60188 6.78881 67.37953 3.2207 -1.63742 -80.87264 3.86369 -3.96205 -4.14263 63.9061 0.68514 11.61146 -76.86399 18.12618 -13.59286 -11.64483
0.41617 0.69064 0.14075 892.55173 0 5.89377 -17.3324 -1.92371 0.82193 -24.50805 -10.82282 -10.46091 17.73366 -7.82064 30.90164 88.26805 118.29082 -24.36053 -9.70944 96.27811 42.16739 -57.85726 110.43226 -119.60866 -63.36413 8.30775 67.4119 3.2465 -1.61593 -80.89668 3.92672 -3.96762 -4.18601 63.93897 0.70176 11.63213 -76.88195 18.13239 -13.60577 -11.66683
0.4165 0.69024 0.14049 892.54958 0 5.92837 -17.30379 -1.93628 1.05066 -24.75296 -10.86258 -10.62554 17.93752 -7.97672 31.07792 88.22879 119.21791 -24.68015 -9.8407 94.54569 41.78655 -59.7853 110.23344 -127.66137 -62.43763 9.68053 67.43712 3.27501 -1.58276 -80.91392 3.98901 -3.97899 -4.23315 63.95918 0.72029 11.66492 -76.88784 18.13673 -13.61836 -11.69316
0.41684 0.6898 0.14021 892.55261 0 5.96314 -17.27056 -1.94498 1.30875 -25.00647 -10.88932 -10.79411 18.13862 -8.15642 31.25526 88.18994 120.12685 -24.97823 -9.97292 92.27696 41.23641 -61.8509 110.06027 -136.97801 -61.21952 11.32523 67.46535 3.30114 -1.55251 -80.9363 4.06038 -3.99102 -4.28526 63.98247 0.73607 11.69723 -76.89549 18.14278 -13.63435 -11.71983
0.41717 0.68942 0.13999 892.54653 0 5.99155 -17.24548 -1.96184 1.4777 -25.20651 -10.84271 -10.90721 18.33483 -8.40415 31.4383 88.21141 120.88021 -25.23868 -10.08217 90.67984 40.92375 -63.20814 109.72642 -143.68015 -60.47455 12.45465 67.49045 3.33074 -1.52232 -80.951 4.11229 -3.99858 -4.32454 64.00545 0.7566 11.72396 -76.9055 18.14611 -13.6432 -11.7435
0.41747 0.68927 0.1399 892.50857 0 6.01142 -17.24718 -2.00213 1.42398 -25.2932 -10.69825 -10.92065 18.53797 -8.71806 31.63741 88.3407 121.42169 -25.47935 -10.15435 91.52557 41.43932 -63.0108 109.02185 -142.89884 -61.26998 12.04453 67.5056 3.37403 -1.48334 -80.94108 4.10957 -3.99596 -4.32914 64.02179 0.7944 11.74484 -76.91609 18.14151 -13.63347 -11.7615
0.41774 0.6892 0.13987 892.46225 0 6.02509 -17.25697 -2.05028 1.28707 -25.33126 -10.4973 -10.8859 18.73558 -9.07862 31.83812 88.51992 121.82873 -25.68952 -10.20599 93.08229 42.20241 -62.16145 108.1868 -139.52991 -62.54383 11.12235 67.51676 3.42039 -1.44423 -80.92314 4.08768 -3.98937 -4.32142 64.03681 0.83649 11.76048 -76.92814 18.13405 -13.61658 -11.77679
0.41801 0.6891 0.13981 892.42356 0 6.03943 -17.26135 -2.09408 1.19474 -25.39311 -10.32641 -10.87231 18.92788 -9.41044 32.02926 88.67117 122.28127 -25.90699 -10.26443 94.21206 42.81667 -61.62485 107.45166 -137.53206 -63.53056 10.48581 67.52826 3.46334 -1.40727 -80.9092 4.07571 -3.98524 -4.3206 64.05186 0.87428 11.77644 -76.9392 18.12776 -13.60267 -11.79319
0.41835 0.68896 0.13974 892.3692 0 6.062 -17.27267 -2.14142 1.07019 -25.44353 -10.12217 -10.85427 19.15068 -9.79199 32.25799 88.85324 122.77253 -26.14136 -10.3304 95.7096 43.56475 -60.96103 106.52896 -134.7387 -64.78644 9.63905 67.54626 3.51462 -1.36233 -80.89413 4.0586 -3.97806 -4.31421 64.06999 0.92168 11.80004 -76.95232 18.12219 -13.59 -11.80973
0.41852 0.68893 0.13971 892.34501 0 6.06629 -17.27174 -2.18295 0.99348 -25.50702 -9.97877 -10.83705 19.31067 -10.0751 32.41 88.98057 123.16096 -26.33744 -10.37699 96.64356 44.10253 -60.42666 105.96961 -132.95146 -65.61023 9.09721 67.54983 3.54937 -1.33365 -80.87938 4.04759 -3.97628 -4.31628 64.08137 0.95038 11.80701 -76.96147 18.11431 -13.57286 -11.82548
0.41819 0.6892 0.13976 892.40981 0 6.02124 -17.23313 -2.20898 1.08075 -25.62895 -10.02885 -10.83256 19.28501 -10.06303 32.33309 88.93338 123.30678 -26.43537 -10.37577 95.76329 43.97262 -60.4453 106.47785 -134.89256 -65.05319 9.6011 67.51221 3.53745 -1.34997 -80.86719 4.05902 -3.99199 -4.34788 64.07136 0.92421 11.76792 -76.95647 18.1015 -13.54689 -11.8398
0.41769 0.68958 0.13987 892.50462 0 5.95815 -17.18212 -2.22846 1.21772 -25.76455 -10.14242 -10.83176 19.19882 -9.94958 32.18142 88.82985 123.35638 -26.49745 -10.35614 94.3132 43.62968 -60.61868 107.35354 -137.87845 -64.0567 10.41489 67.46051 3.50884 -1.38257 -80.85558 4.0771 -4.01306 -4.38791 64.05503 0.87949 11.71264 -76.94782 18.08628 -13.51628 -11.85348
0.41728 0.68989 0.13996 892.58318 0 5.9037 -17.1383 -2.24926 1.32488 -25.88777 -10.22133 -10.83131 19.14974 -9.88792 32.07511 88.75841 123.44822 -26.57731 -10.34492 93.19168 43.40438 -60.70637 108.04177 -140.17578 -63.31553 11.03342 67.41673 3.4881 -1.40747 -80.84383 4.09153 -4.03066 -4.42202 64.0435 0.84478 11.66591 -76.9426 18.07168 -13.48671 -11.86745
0.4168 0.69026 0.14001 892.67217 0 5.84728 -17.08896 -2.27721 1.45891 -26.03513 -10.32168 -10.82088 19.06087 -9.80498 31.92228 88.66259 123.54025 -26.64925 -10.3326 91.81141 43.10048 -60.83518 108.80908 -143.27708 -62.37235 11.86046 67.36657 3.46637 -1.43345 -80.8313 4.1079 -4.05239 -4.46439 64.02387 0.80366 11.61413 -76.93006 18.0591 -13.46163 -11.88128
0.41642 0.69055 0.14016 892.74704 0 5.7906 -17.0471 -2.28879 1.55067 -26.13625 -10.39426 -10.83229 19.03936 -9.74051 31.84674 88.60214 123.61201 -26.73007 -10.31866 90.81134 42.90527 -60.9237 109.5038 -144.99584 -61.71881 12.33785 67.32618 3.44255 -1.46129 -80.82058 4.12213 -4.06696 -4.49186 64.01951 0.77128 11.56885 -76.93175 18.04165 -13.42588 -11.89535
0.41635 0.69056 0.14062 892.77232 0 5.73932 -17.037 -2.25512 1.5065 -26.10429 -10.36503 -10.90637 19.22836 -9.76241 32.01849 88.66533 123.6416 -26.8396 -10.30306 91.11899 43.07249 -60.86388 109.88149 -142.5576 -62.15723 11.73711 67.3183 3.41834 -1.48798 -80.81546 4.12819 -4.05967 -4.47531 64.05994 0.76877 11.5476 -76.97476 18.01241 -13.36468 -11.90956
0.41637 0.69049 0.14119 892.78294 0 5.6882 -17.03323 -2.20552 1.41921 -26.02509 -10.30656 -11.00108 19.48485 -9.80567 32.26766 88.76446 123.65545 -26.95945 -10.28673 91.80063 43.35314 -60.75745 110.17808 -138.71533 -62.87214 10.78255 67.32044 3.3924 -1.5163 -80.81212 4.13206 -4.04517 -4.44375 64.11583 0.77546 11.53309 -77.03206 17.9782 -13.2925 -11.92414
0.41634 0.69046 0.14171 892.80254 0 5.63585 -17.02136 -2.16423 1.35754 -25.97024 -10.26964 -11.08557 19.7049 -9.82997 32.47118 88.83763 123.68521 -27.07891 -10.2721 92.23357 43.57427 -60.68049 110.53136 -135.59054 -63.32859 10.01754 67.31655 3.36629 -1.54547 -80.80744 4.13746 -4.03451 -4.41962 64.16391 0.77714 11.51409 -77.08198 17.94555 -13.22338 -11.93906
0.41635 0.6904 0.14225 892.81369 0 5.58748 -17.03149 -2.11802 1.27467 -25.9073 -10.20502 -11.1773 19.94973 -9.88349 32.71638 88.94557 123.6796 -27.18265 -10.25161 92.99099 43.82266 -60.59015 110.818 -132.18692 -64.30341 9.14441 67.31807 3.34335 -1.56886 -80.80473 4.14091 -4.02164 -4.39302 64.21489 0.78163 11.50044 -77.13523 17.91565 -13.16184 -11.95196
